<svg width="20" height="22" viewBox="0 0 20 22" fill="none" xmlns="http://www.w3.org/2000/svg">
<path d="M16.9272 3.37437C16.03 2.46817 14.9629 1.74783 13.7869 1.2546C12.611 0.761372 11.3493 0.504945 10.0741 0.5H10C7.41414 0.5 4.93419 1.52723 3.10571 3.35571C1.27723 5.18419 0.25 7.66414 0.25 10.25V15.5C0.25 16.0967 0.487053 16.669 0.90901 17.091C1.33097 17.5129 1.90326 17.75 2.5 17.75H4C4.59674 17.75 5.16903 17.5129 5.59099 17.091C6.01295 16.669 6.25 16.0967 6.25 15.5V11.75C6.25 11.1533 6.01295 10.581 5.59099 10.159C5.16903 9.73705 4.59674 9.5 4 9.5H1.78375C1.92839 7.93619 2.51578 6.446 3.47709 5.2041C4.43839 3.96219 5.73377 3.02003 7.21141 2.48803C8.68904 1.95603 10.2877 1.85624 11.82 2.20035C13.3524 2.54446 14.7548 3.31822 15.8631 4.43094C17.2177 5.79247 18.0509 7.58662 18.2172 9.5H16C15.4033 9.5 14.831 9.73705 14.409 10.159C13.9871 10.581 13.75 11.1533 13.75 11.75V15.5C13.75 16.0967 13.9871 16.669 14.409 17.091C14.831 17.5129 15.4033 17.75 16 17.75H18.25C18.25 18.3467 18.0129 18.919 17.591 19.341C17.169 19.7629 16.5967 20 16 20H10.75C10.5511 20 10.3603 20.079 10.2197 20.2197C10.079 20.3603 10 20.5511 10 20.75C10 20.9489 10.079 21.1397 10.2197 21.2803C10.3603 21.421 10.5511 21.5 10.75 21.5H16C16.9946 21.5 17.9484 21.1049 18.6517 20.4016C19.3549 19.6984 19.75 18.7446 19.75 17.75V10.25C19.7549 8.9746 19.5081 7.71077 19.0237 6.53093C18.5393 5.35108 17.8268 4.27841 16.9272 3.37437ZM4 11C4.19891 11 4.38968 11.079 4.53033 11.2197C4.67098 11.3603 4.75 11.5511 4.75 11.75V15.5C4.75 15.6989 4.67098 15.8897 4.53033 16.0303C4.38968 16.171 4.19891 16.25 4 16.25H2.5C2.30109 16.25 2.11032 16.171 1.96967 16.0303C1.82902 15.8897 1.75 15.6989 1.75 15.5V11H4ZM16 16.25C15.8011 16.25 15.6103 16.171 15.4697 16.0303C15.329 15.8897 15.25 15.6989 15.25 15.5V11.75C15.25 11.5511 15.329 11.3603 15.4697 11.2197C15.6103 11.079 15.8011 11 16 11H18.25V16.25H16Z" fill="#00100B"/>
</svg>
