<svg width="24" height="25" viewBox="0 0 24 25" fill="none" xmlns="http://www.w3.org/2000/svg">
<path d="M17.5838 13.8287L14.5838 12.3287C14.4658 12.2699 14.3342 12.2433 14.2026 12.2515C14.0709 12.2597 13.9437 12.3025 13.8338 12.3756L12.4567 13.2944C11.8245 12.9468 11.3042 12.4266 10.9567 11.7944L11.8754 10.4172C11.9485 10.3073 11.9913 10.1802 11.9996 10.0485C12.0078 9.9168 11.9811 9.78528 11.9223 9.66719L10.4223 6.66719C10.3601 6.54163 10.264 6.436 10.1449 6.36226C10.0257 6.28853 9.88833 6.24964 9.74822 6.25C8.75366 6.25 7.79983 6.64509 7.09657 7.34835C6.39331 8.05161 5.99822 9.00544 5.99822 10C6.0007 12.1873 6.87069 14.2843 8.41733 15.8309C9.96397 17.3775 12.0609 18.2475 14.2482 18.25C14.7407 18.25 15.2283 18.153 15.6833 17.9645C16.1383 17.7761 16.5517 17.4999 16.8999 17.1517C17.2481 16.8034 17.5243 16.39 17.7128 15.9351C17.9012 15.4801 17.9982 14.9925 17.9982 14.5C17.9983 14.3607 17.9596 14.2241 17.8864 14.1055C17.8132 13.9869 17.7085 13.8911 17.5838 13.8287ZM14.2482 16.75C12.4586 16.748 10.7429 16.0362 9.47744 14.7708C8.212 13.5053 7.50021 11.7896 7.49822 10C7.49808 9.4798 7.67819 8.97562 8.00791 8.57326C8.33762 8.1709 8.79657 7.89521 9.30666 7.79313L10.3829 9.94938L9.46697 11.3125C9.39853 11.4152 9.35647 11.5331 9.34453 11.656C9.3326 11.7788 9.35114 11.9026 9.39853 12.0166C9.93514 13.2919 10.9497 14.3065 12.2251 14.8431C12.3394 14.8926 12.4642 14.9129 12.5882 14.9021C12.7123 14.8913 12.8317 14.8498 12.9357 14.7812L14.3054 13.8681L16.4617 14.9444C16.3588 15.455 16.0819 15.9142 15.6782 16.2435C15.2746 16.5728 14.7692 16.7518 14.2482 16.75ZM11.9982 2.5C10.3149 2.49963 8.66018 2.93508 7.19508 3.76396C5.72999 4.59285 4.50445 5.78692 3.63776 7.22997C2.77106 8.67301 2.29274 10.3159 2.24934 11.9986C2.20594 13.6814 2.59894 15.3467 3.3901 16.8325L2.32603 20.0247C2.2379 20.289 2.2251 20.5726 2.28909 20.8438C2.35309 21.1149 2.49133 21.3629 2.68833 21.5599C2.88534 21.7569 3.13331 21.8951 3.40447 21.9591C3.67562 22.0231 3.95924 22.0103 4.22353 21.9222L7.41572 20.8581C8.72332 21.5536 10.1722 21.9421 11.6523 21.994C13.1324 22.0459 14.605 21.76 15.9581 21.1579C17.3112 20.5557 18.5094 19.6533 19.4617 18.519C20.4139 17.3846 21.0953 16.0483 21.454 14.6113C21.8127 13.1744 21.8393 11.6746 21.5318 10.2258C21.2243 8.77701 20.5908 7.41732 19.6794 6.24992C18.7679 5.08253 17.6025 4.13811 16.2716 3.48836C14.9407 2.83861 13.4793 2.50061 11.9982 2.5ZM11.9982 20.5C10.5479 20.501 9.123 20.1191 7.8676 19.3928C7.77568 19.3395 7.67349 19.3063 7.56778 19.2955C7.46208 19.2847 7.35529 19.2964 7.25447 19.33L3.74822 20.5L4.91728 16.9938C4.95098 16.893 4.96289 16.7862 4.95223 16.6805C4.94156 16.5748 4.90856 16.4726 4.85541 16.3806C3.94601 14.8084 3.58089 12.9799 3.81669 11.179C4.05249 9.37801 4.87603 7.7052 6.15955 6.42006C7.44308 5.13491 9.11484 4.30925 10.9155 4.07118C12.7162 3.8331 14.5451 4.19591 16.1185 5.10333C17.6919 6.01074 18.9219 7.41204 19.6176 9.08983C20.3134 10.7676 20.436 12.6281 19.9664 14.3827C19.4969 16.1373 18.4615 17.6879 17.0207 18.7939C15.58 19.9 13.8145 20.4997 11.9982 20.5Z" fill="#00100B"/>
</svg>
